<?xml version="1.0" encoding="utf-8"?>
<!-- Generator: Adobe Illustrator 17.0.0, SVG Export Plug-In . SVG Version: 6.00 Build 0)  -->
<!DOCTYPE svg PUBLIC "-//W3C//DTD SVG 1.1//EN" "http://www.w3.org/Graphics/SVG/1.1/DTD/svg11.dtd">
<svg version="1.1" id="Layer_1" xmlns="http://www.w3.org/2000/svg" xmlns:xlink="http://www.w3.org/1999/xlink" x="0px" y="0px"
	 width="595.28px" height="841.89px" viewBox="0 0 595.28 841.89" enable-background="new 0 0 595.28 841.89" xml:space="preserve">
<g>
	<path fill="#34D5AC" d="M511.646,337.75c84.337-74.498,71.687-229.819,56.225-245.281c-9.137-9.137-29.518,33.032-84.337,66.767
		c-4.92,4.92-10.542,30.221-10.542,66.767c0,0-10.542-26.707-9.137-54.819c-63.253,33.735-118.775,45.683-130.02,134.237
		c-0.703-28.112-17.57-48.494-2.811-84.337c-75.903,21.787-181.325,38.655-203.815,126.506c-4.217,17.57-7.028,38.655-7.028,66.064
		c-4.217-2.811-18.273-42.169-14.056-84.337c-92.771,96.285-33.032,124.397-33.032,193.273
		c-21.084-16.165-55.522-6.325-55.522-6.325c25.301,3.514,39.357,23.896,39.357,23.896c-37.952,11.948-39.357,63.253-39.357,63.253
		c11.245-23.896,66.064-52.008,80.12-38.655C73.795,333.533,342.268,348.995,472.991,262.549
		c-70.984,113.855-361.947,79.418-354.216,310.642c30.221,0,68.173-49.197,144.076-87.148c-9.137-9.839-45.683-26.707-85.743-16.165
		c111.747-61.847,156.727,28.815,317.67-115.964c-5.622-9.137-28.815-26.707-59.036-16.165
		C467.369,319.477,491.967,325.802,511.646,337.75z"/>
</g>
</svg>
