<?xml version="1.0" encoding="utf-8"?>
<!-- Generator: Adobe Illustrator 17.0.0, SVG Export Plug-In . SVG Version: 6.00 Build 0)  -->
<!DOCTYPE svg PUBLIC "-//W3C//DTD SVG 1.1//EN" "http://www.w3.org/Graphics/SVG/1.1/DTD/svg11.dtd">
<svg version="1.1" id="Objects" xmlns="http://www.w3.org/2000/svg" xmlns:xlink="http://www.w3.org/1999/xlink" x="0px" y="0px"
	 width="800px" height="800px" viewBox="0 0 800 800" enable-background="new 0 0 800 800" xml:space="preserve">
<g>
	<path fill="#34D5AC" d="M377.848,666.149l0.043,0.217c0.079,0.501,0.22,0.958,0.357,1.399l0.114,0.368
		c0.354,1.002,0.828,2.02,1.451,3.115c0.52,0.898,1.13,1.804,1.869,2.771c0.756,0.978,1.449,1.776,2.161,2.495l0.953,1.038
		l1.009-1.018c0.662-0.669,1.304-1.404,2.021-2.313c0.63-0.801,1.22-1.651,1.75-2.521c0.536-0.862,1.017-1.807,1.432-2.812
		c0.243-0.604,0.406-1.081,0.514-1.498c0.142-0.414,0.22-0.865,0.295-1.303l0.152-1.345c0.003-0.021,0.011-0.043,0.012-0.255
		l-0.019-0.475c0.003-0.529-0.082-1.023-0.165-1.502l-0.104-0.484c-0.131-0.482-0.267-0.981-0.466-1.424
		c-0.213-0.574-0.505-1.089-0.769-1.553c-0.531-0.904-1.22-1.79-2.05-2.634c-0.406-0.409-0.801-0.772-1.211-1.11
		c-0.376-0.309-0.804-0.645-1.407-1.027l-0.998-0.569l-0.938,0.584c-0.267,0.166-0.459,0.304-0.681,0.464
		c-0.205,0.152-0.409,0.306-0.596,0.461c-0.372,0.3-0.739,0.627-1.125,1.003c-0.735,0.722-1.388,1.507-1.943,2.338
		c-0.303,0.459-0.557,0.903-0.753,1.315c-0.11,0.195-0.196,0.405-0.28,0.617l-0.132,0.328c-0.082,0.2-0.161,0.4-0.198,0.565
		c-0.187,0.593-0.303,1.106-0.358,1.572c-0.058,0.312-0.086,0.602-0.085,0.826l-0.029,0.772l0.072,0.878
		C377.755,665.679,377.8,665.915,377.848,666.149z M381.318,666.825c-0.086-0.336-0.167-0.653-0.198-0.965
		c-0.01-0.087-0.023-0.173-0.037-0.259c-0.018-0.114-0.04-0.229-0.037-0.389l-0.025-0.589l0.055-0.662
		c0.007-0.159,0.028-0.304,0.081-0.499c0.049-0.278,0.138-0.593,0.293-1.023c0.024-0.092,0.068-0.176,0.109-0.262l0.143-0.312
		c0.044-0.099,0.085-0.198,0.175-0.341c0.165-0.308,0.356-0.608,0.583-0.919c0.355-0.482,0.76-0.943,1.205-1.373l0.422,7.168h1.497
		l0.422-7.176c0.577,0.554,1.062,1.131,1.475,1.768c0.206,0.327,0.4,0.637,0.556,1.005c0.13,0.252,0.223,0.535,0.322,0.836
		l0.126,0.471c0.065,0.296,0.126,0.576,0.137,0.883l0.034,0.365l-0.03,0.831c-0.023,0.138-0.041,0.272-0.058,0.405
		c-0.031,0.236-0.058,0.47-0.146,0.781c-0.073,0.347-0.181,0.72-0.35,1.204c-0.309,0.861-0.675,1.674-1.092,2.423
		c-0.433,0.796-0.92,1.574-1.447,2.312c-0.215,0.303-0.448,0.613-0.696,0.929c-0.3-0.383-0.578-0.757-0.828-1.118
		c-0.612-0.888-1.113-1.715-1.528-2.521c-0.478-0.947-0.831-1.813-1.069-2.604L381.318,666.825z"/>
	<path fill="#34D5AC" d="M498.205,643.493c-0.009,0.008-0.624,0.586-1.782,1.566c-1.648,1.334-3.492,2.54-5.48,3.583
		c-2.736,1.43-5.949,2.663-9.295,3.567c-3.335,0.924-7.28,1.706-12.422,2.462l-16.429,2.52l-28.777,4.353
		c-5.306,0.775-10.271,1.755-14.762,2.913c-5.034,1.325-9.084,2.792-12.379,4.485c-3.467,1.771-6.41,3.817-8.734,6.068
		c-0.404,0.373-0.745,0.77-1.075,1.153c-0.16,0.186-0.317,0.369-0.5,0.568c-0.124,0.147-0.25,0.289-0.375,0.431
		c-0.355,0.399-0.723,0.812-0.997,1.282c-0.176,0.282-0.357,0.554-0.536,0.819l-0.544-0.82c-0.28-0.48-0.64-0.885-0.989-1.275
		c-0.131-0.147-0.264-0.297-0.417-0.478c-0.162-0.176-0.319-0.359-0.479-0.546c-0.329-0.383-0.669-0.778-1.059-1.136
		c-2.325-2.252-5.265-4.294-8.736-6.069c-3.294-1.691-7.342-3.158-12.379-4.484c-4.488-1.157-9.454-2.137-14.756-2.912l-15.457-2.31
		l-29.756-4.563c-5.135-0.754-9.081-1.535-12.422-2.461c-3.341-0.902-6.554-2.136-9.29-3.565c-1.988-1.043-3.833-2.249-5.469-3.573
		c-1.171-0.991-1.788-1.57-1.796-1.578l-1.049,1.072c0,0,0.61,0.622,1.804,1.716c1.679,1.471,3.57,2.812,5.622,3.986
		c2.805,1.6,6.111,3.005,9.558,4.062c3.375,1.06,7.5,2.017,12.61,2.926c2.666,0.481,5.433,0.99,8.274,1.513
		c6.926,1.273,14.087,2.59,21.383,3.815l15.401,2.56c5.184,0.819,10.029,1.807,14.399,2.934c4.82,1.27,8.646,2.623,11.698,4.138
		c3.176,1.57,5.875,3.354,8.015,5.294c1.598,1.487,2.93,3.091,4.063,4.894l-0.693,1.479l-1.096,3.559
		c-0.246,1.309-0.402,2.45-0.528,3.367l-0.098,0.752c-0.014,1.085-0.011,1.91,0.001,2.529c0.032,1.657,0.045,2.349,0.858,2.349
		c0.005,0,0.01,0,0.015,0l0.146-0.002l0.135-0.056c0.417-0.174,0.507-0.422,0.804-2.222l0.342-2.335
		c0.123-0.441,0.245-0.931,0.378-1.467c0.17-0.687,0.36-1.451,0.585-2.252c0.296-0.854,0.597-1.629,0.918-2.363
		c0.324,0.74,0.626,1.514,0.918,2.349l0.954,3.688c0.139,1.042,0.26,1.842,0.359,2.445c0.274,1.656,0.366,2.215,1.083,2.215
		l0.191-0.001l0.166-0.09c0.416-0.223,0.473-0.482,0.508-2.316c0.01-0.622,0.021-1.451-0.012-2.628l-0.121-0.86
		c-0.125-0.911-0.267-1.944-0.523-3.229l-0.851-2.818c-0.052-0.172-0.105-0.346-0.193-0.577l-0.712-1.517
		c1.139-1.808,2.476-3.414,4.072-4.896c2.137-1.94,4.833-3.72,8.014-5.291c3.052-1.515,6.876-2.868,11.689-4.136
		c4.374-1.128,9.22-2.115,14.409-2.936l15.396-2.56c7.298-1.226,14.461-2.543,21.39-3.816c2.838-0.521,5.603-1.029,8.265-1.511
		c5.114-0.91,9.239-1.868,12.605-2.926c3.45-1.058,6.757-2.464,9.563-4.064c2.054-1.176,3.945-2.517,5.633-3.997
		c1.164-1.065,1.767-1.679,1.792-1.705L498.205,643.493z"/>
	<path fill="#34D5AC" d="M379.274,683.759c-0.043,0.012-1.062,0.292-2.502,0.812c-1.091,0.467-3.097,1.475-4.255,2.953
		c-0.237,0.273-0.507,0.583-0.751,0.962c-0.157,0.304-0.281,0.581-0.379,0.833c-0.186,0.482-0.294,0.926-0.321,1.319
		c-0.062,0.878,0.277,1.373,0.615,1.543c0.13,0.065,0.279,0.097,0.457,0.097c0.233,0,0.613-0.056,1.098-0.323
		c0.337-0.186,0.67-0.444,0.989-0.767c0.171-0.172,0.35-0.376,0.476-0.548l0.156-0.156c0.159-0.157,0.329-0.327,0.527-0.557
		c0.852-1.099,2.015-2.353,2.806-3.178c1.021-0.932,1.785-1.709,1.817-1.741l1.944-1.981L379.274,683.759z"/>
	<path fill="#34D5AC" d="M397.826,688.416c-0.191-0.291-0.425-0.564-0.686-0.864c-1.183-1.508-3.189-2.515-4.32-2.997
		c-1.4-0.503-2.42-0.782-2.462-0.794l-2.679-0.729l1.947,1.979c0.032,0.032,0.796,0.808,1.782,1.706
		c0.828,0.859,1.993,2.114,2.87,3.245c0.169,0.193,0.339,0.362,0.498,0.52l0.099,0.09c0.184,0.24,0.363,0.442,0.536,0.617
		c0.321,0.325,0.655,0.584,0.989,0.769c0.484,0.268,0.862,0.324,1.093,0.324c0.2,0,0.366-0.041,0.505-0.124
		c0.312-0.186,0.626-0.684,0.569-1.521c-0.026-0.394-0.134-0.837-0.32-1.318C398.148,689.066,398.024,688.787,397.826,688.416z"/>
	<path fill="#34D5AC" d="M384.583,693.536l-0.707,1.982c-0.047,0.134-1.165,3.295-1.165,5.574c0,2.699,1.384,3.307,1.869,3.307
		h0.018c0.481-0.011,1.855-0.641,1.855-3.307c0-2.279-1.118-5.44-1.165-5.574L384.583,693.536z"/>
	<path fill="#34D5AC" d="M372.192,680.349c0,0-0.679-0.702-1.911-1.873c-1.133-0.955-3.029-2.552-5.457-3.881
		c-4.199-2.445-10.382-4.617-16.536-5.81c-4.075-0.809-7.461-1.275-10.352-1.427c-0.381-0.02-0.707-0.028-0.985-0.028
		c-1.1,0-2.092,0.067-2.145,0.883c-0.03,0.466,0.146,0.924,2.621,1.802c1.859,0.663,5.076,1.438,10.125,2.439
		c4.599,0.894,11.269,2.329,16.103,4.482c2.301,0.955,4.142,2.135,5.477,2.989l2.073,1.546L372.192,680.349z"/>
	<path fill="#34D5AC" d="M431.52,667.334c-0.276,0-0.599,0.008-0.975,0.027c-2.874,0.148-6.256,0.614-10.336,1.423
		c-6.156,1.193-12.339,3.365-16.521,5.802c-2.44,1.336-4.339,2.935-5.508,3.921c-1.197,1.141-1.876,1.843-1.876,1.843l0.987,1.123
		l2.078-1.548c1.342-0.859,3.179-2.036,5.491-2.994c4.818-2.147,11.487-3.584,16.086-4.478c5.048-1,8.269-1.775,10.135-2.439
		c2.435-0.865,2.782-1.367,2.568-1.998C433.493,667.573,433.108,667.334,431.52,667.334z"/>
</g>
</svg>
