<?xml version="1.0" encoding="utf-8"?>
<!-- Generator: Adobe Illustrator 17.0.0, SVG Export Plug-In . SVG Version: 6.00 Build 0)  -->
<!DOCTYPE svg PUBLIC "-//W3C//DTD SVG 1.1//EN" "http://www.w3.org/Graphics/SVG/1.1/DTD/svg11.dtd">
<svg version="1.1" id="Objects" xmlns="http://www.w3.org/2000/svg" xmlns:xlink="http://www.w3.org/1999/xlink" x="0px" y="0px"
	 width="1122px" height="1122px" viewBox="0 0 1122 1122" enable-background="new 0 0 1122 1122" xml:space="preserve">
<g>
	<g>
		<g>
			<path fill="#34D5AC" d="M613.605,175.296c2.478-4.782,6.967-8.33,11.948-10.378c4.981-2.048,10.441-2.696,15.827-2.688
				c-0.651,6.513-1.385,13.28-4.819,18.853c-2.985,4.844-13.057,12.808-19.275,12.067c-0.191-0.023-0.376-0.055-0.555-0.093
				c2.716-5.703,6.639-10.812,11.465-14.898c0.678-0.574,0.762-1.588,0.188-2.266c-0.573-0.677-1.588-0.762-2.266-0.188
				c-5.122,4.336-9.293,9.748-12.202,15.789C610.425,187.786,611.676,179.017,613.605,175.296z"/>
		</g>
	</g>
	<g>
		<g>
			<path fill="#34D5AC" d="M603.047,168.807c3.692,4.524,8.196,16.692,5.607,22.115c-0.301,0.63-0.682,1.141-1.124,1.551
				c-5.477-5.475-9.554-12.432-11.602-19.884c-0.235-0.856-1.12-1.359-1.976-1.124c-0.856,0.235-1.359,1.12-1.124,1.976
				c2.077,7.56,6.106,14.641,11.508,20.353c-4.639,0.426-11.143-3.318-13.746-6.093c-3.787-4.036-5.793-9.459-6.225-14.779
				c-0.432-5.32,0.608-10.561,2.25-15.492C592.599,160.432,598.799,163.603,603.047,168.807z"/>
		</g>
	</g>
</g>
</svg>
