<?xml version="1.0" encoding="utf-8"?>
<!-- Generator: Adobe Illustrator 17.0.0, SVG Export Plug-In . SVG Version: 6.00 Build 0)  -->
<!DOCTYPE svg PUBLIC "-//W3C//DTD SVG 1.1//EN" "http://www.w3.org/Graphics/SVG/1.1/DTD/svg11.dtd">
<svg version="1.1" id="Layer_3" xmlns="http://www.w3.org/2000/svg" xmlns:xlink="http://www.w3.org/1999/xlink" x="0px" y="0px"
	 width="800px" height="800px" viewBox="0 0 800 800" enable-background="new 0 0 800 800" xml:space="preserve">
<g>
	<path id="XMLID_69_" fill="#34D5AC" d="M243.144,193.866c0,0,19.351-0.886,48.381-1.507c14.513-0.345,31.453-0.61,49.588-0.806
		c9.083-0.069,18.446-0.212,27.978-0.223c9.525-0.037,19.197-0.059,28.876-0.096c9.672,0.037,19.346,0.059,28.88,0.096
		c9.522,0,18.897,0.154,27.958,0.212c18.152,0.19,35.085,0.466,49.597,0.817c29.03,0.615,48.381,1.507,48.381,1.507
		s-19.351,0.875-48.381,1.502c-14.513,0.344-31.445,0.626-49.597,0.806c-9.061,0.074-18.437,0.228-27.958,0.228
		c-9.534,0.027-19.209,0.053-28.88,0.09c-9.679-0.037-19.351-0.064-28.876-0.09c-9.532-0.016-18.895-0.154-27.978-0.234
		c-18.134-0.186-35.075-0.461-49.588-0.801C262.495,194.73,243.144,193.866,243.144,193.866z"/>
	<g id="XMLID_53_">
		<g id="XMLID_61_">
			<polygon id="XMLID_68_" fill="#34D5AC" points="402.017,126.827 399.75,185.12 404.286,185.12 			"/>
			<polygon id="XMLID_67_" fill="#34D5AC" points="430.481,139.515 417.409,185.12 421.974,185.12 			"/>
			<polygon id="XMLID_66_" fill="#34D5AC" points="453.241,145.352 433.89,185.12 438.531,185.12 			"/>
			<polygon id="XMLID_65_" fill="#34D5AC" points="475.828,153.033 450.549,185.12 455.56,185.12 			"/>
			<polygon id="XMLID_64_" fill="#34D5AC" points="500.611,157.633 469.702,185.12 474.795,185.12 			"/>
			<polygon id="XMLID_63_" fill="#34D5AC" points="518.973,167.607 493.278,185.12 498.177,185.12 			"/>
			<polygon id="XMLID_62_" fill="#34D5AC" points="537.11,176.93 520.889,185.12 525.288,185.12 			"/>
		</g>
		<g id="XMLID_54_">
			<polygon id="XMLID_60_" fill="#34D5AC" points="373.415,139.515 386.207,185.12 381.74,185.12 			"/>
			<polygon id="XMLID_59_" fill="#34D5AC" points="351.185,145.352 370.097,185.12 365.553,185.12 			"/>
			<polygon id="XMLID_58_" fill="#34D5AC" points="329.083,153.033 353.803,185.12 348.9,185.12 			"/>
			<polygon id="XMLID_57_" fill="#34D5AC" points="304.86,157.633 335.094,185.12 330.102,185.12 			"/>
			<polygon id="XMLID_56_" fill="#34D5AC" points="286.904,167.607 312.022,185.12 307.242,185.12 			"/>
			<polygon id="XMLID_55_" fill="#34D5AC" points="269.17,176.93 285.027,185.12 280.733,185.12 			"/>
		</g>
	</g>
</g>
</svg>
