<?xml version="1.0" encoding="utf-8"?>
<!-- Generator: Adobe Illustrator 17.0.0, SVG Export Plug-In . SVG Version: 6.00 Build 0)  -->
<!DOCTYPE svg PUBLIC "-//W3C//DTD SVG 1.1//EN" "http://www.w3.org/Graphics/SVG/1.1/DTD/svg11.dtd">
<svg version="1.1" id="Layer_1" xmlns="http://www.w3.org/2000/svg" xmlns:xlink="http://www.w3.org/1999/xlink" x="0px" y="0px"
	 width="450px" height="450px" viewBox="0 0 450 450" enable-background="new 0 0 450 450" xml:space="preserve">
<g>
	<g>
		
			<rect x="84.091" y="148.172" transform="matrix(-0.8764 0.4816 -0.4816 -0.8764 234.0322 238.0962)" fill="#34D5AC" width="4.735" height="1.824"/>
		<path fill="#34D5AC" d="M75.375,137.925c0.076-0.262,2.337-1.095,5.106-0.29c2.449,0.712,3.817,2.16,4.019,2.528
			c0.157,0.285,1.005,1.829,1.439,2.619c0.065,0.119,0.081,0.259,0.043,0.389c-0.038,0.13-0.126,0.24-0.245,0.305l-1.627,0.894
			l-2.449,1.346l-1.685-3.067c2.149-1.181,0.445-3.076-1.272-3.949C77.072,137.87,75.375,137.927,75.375,137.925z"/>
		<g>
			<path fill="#34D5AC" d="M82.241,145.825l1.863-1.024l1.863-1.024c-0.178,1.067,0.537,3.417,1.946,3.039l-2.075,1.14l-2.075,1.14
				C84.838,148.11,83.238,146.247,82.241,145.825z"/>
		</g>
		<g>
			<path fill="#34D5AC" d="M78.774,143.93c0.574-0.316,0.87-0.685,0.874-1.1l0.171,0.311l0.672,1.222l0.672,1.223l0.171,0.311
				c-0.353-0.219-0.823-0.167-1.397,0.148l-0.933,0.513l-0.581-1.057l-0.581-1.057L78.774,143.93z"/>
		</g>
		
			<rect x="57.777" y="148.172" transform="matrix(0.8764 0.4816 -0.4816 0.8764 79.239 -10.5369)" fill="#34D5AC" width="4.735" height="1.825"/>
		<path fill="#34D5AC" d="M60.865,143.477l1.627,0.894l2.449,1.346l1.685-3.067c-2.149-1.181-0.445-3.076,1.272-3.949
			c1.632-0.83,3.329-0.773,3.329-0.775c-0.076-0.262-2.337-1.095-5.106-0.29c-2.449,0.712-3.817,2.16-4.019,2.528
			c-0.157,0.285-1.005,1.829-1.439,2.619c-0.065,0.119-0.081,0.259-0.043,0.389C60.658,143.301,60.746,143.411,60.865,143.477z"/>
		<g>
			<path fill="#34D5AC" d="M62.839,149.097c-1.075-0.987,0.526-2.85,1.522-3.272l-1.863-1.024l-1.863-1.024
				c0.178,1.067-0.537,3.417-1.946,3.039l2.075,1.14L62.839,149.097z"/>
		</g>
		<g>
			<path fill="#34D5AC" d="M66.954,142.83l-0.171,0.311l-0.672,1.222l-0.672,1.222l-0.171,0.311
				c0.353-0.219,0.823-0.167,1.397,0.148l0.933,0.513l0.581-1.057l0.581-1.057l-0.933-0.512
				C67.254,143.615,66.959,143.245,66.954,142.83z"/>
		</g>
		<g>
			<path fill="#34D5AC" d="M75.823,150.176l-1.384,0.76c1.343,0.738,1.887,1.037,4.203,2.31c3.168,1.741,7.14,4.336,7.811,4.955
				c0.215,0.198,0.558,0.14,0.699-0.116l0.911-1.658l0.911-1.658c0.141-0.256,0.005-0.577-0.277-0.652
				c-0.881-0.235-5.202-2.197-8.37-3.938c-1.256-0.69-1.987-1.092-2.609-1.434c-0.094,0.08-0.188,0.16-0.279,0.239
				C76.967,149.393,76.477,149.816,75.823,150.176z"/>
		</g>
		<g>
			<path fill="#34D5AC" d="M69.09,144.623l-0.581,1.058l-0.581,1.057c0.417,0.229,0.764,0.463,1.072,0.694l3.069-1.687
				C71.19,145.439,70.275,145.275,69.09,144.623z"/>
		</g>
		<g>
			<path fill="#34D5AC" d="M57.906,154.117c0.881-0.235,5.202-2.197,8.369-3.938c3.528-1.939,2.931-1.611,7.335-4.031
				c1.193-0.656,2.3-0.645,3.903-1.526l0.581,1.058l0.581,1.057c-1.603,0.881-2.187,1.822-3.38,2.477
				c-4.403,2.42-3.807,2.092-7.335,4.031c-3.168,1.741-7.14,4.336-7.811,4.955c-0.215,0.198-0.558,0.14-0.699-0.116l-0.911-1.658
				l-0.911-1.658C57.488,154.514,57.623,154.192,57.906,154.117z"/>
		</g>
	</g>
</g>
</svg>
