<?xml version="1.0" encoding="utf-8"?>
<!-- Generator: Adobe Illustrator 17.0.0, SVG Export Plug-In . SVG Version: 6.00 Build 0)  -->
<!DOCTYPE svg PUBLIC "-//W3C//DTD SVG 1.1//EN" "http://www.w3.org/Graphics/SVG/1.1/DTD/svg11.dtd">
<svg version="1.1" id="Layer_1" xmlns="http://www.w3.org/2000/svg" xmlns:xlink="http://www.w3.org/1999/xlink" x="0px" y="0px"
	 width="200px" height="200px" viewBox="0 0 200 200" enable-background="new 0 0 200 200" xml:space="preserve">
<g>
	<path fill="#34D5AC" d="M170.049,96.861c27.696-24.465,23.542-75.473,18.464-80.551c-3.001-3.001-9.694,10.848-27.696,21.926
		c-1.616,1.616-3.462,9.925-3.462,21.926c0,0-3.462-8.771-3.001-18.003c-20.772,11.079-39.006,15.002-42.699,44.084
		c-0.231-9.232-5.77-15.926-0.923-27.696C85.806,65.703,51.185,71.242,43.8,100.092c-1.385,5.77-2.308,12.694-2.308,21.696
		c-1.385-0.923-6.001-13.848-4.616-27.696c-30.466,31.62-10.848,40.852-10.848,63.471c-6.924-5.309-18.234-2.077-18.234-2.077
		c8.309,1.154,12.925,7.848,12.925,7.848c-12.464,3.924-12.925,20.772-12.925,20.772c3.693-7.847,21.696-17.08,26.312-12.694
		c-7.847-75.935,80.32-70.857,123.249-99.246C134.044,109.555,38.491,98.246,41.03,174.18c9.925,0,22.388-16.156,47.315-28.62
		c-3.001-3.231-15.002-8.771-28.158-5.309c36.698-20.311,51.469,9.463,104.323-38.083c-1.846-3.001-9.463-8.771-19.388-5.309
		C155.509,90.86,163.587,92.937,170.049,96.861z"/>
</g>
</svg>
