<?xml version="1.0" encoding="utf-8"?>
<!-- Generator: Adobe Illustrator 17.0.0, SVG Export Plug-In . SVG Version: 6.00 Build 0)  -->
<!DOCTYPE svg PUBLIC "-//W3C//DTD SVG 1.1//EN" "http://www.w3.org/Graphics/SVG/1.1/DTD/svg11.dtd">
<svg version="1.1" id="Layer_1" xmlns="http://www.w3.org/2000/svg" xmlns:xlink="http://www.w3.org/1999/xlink" x="0px" y="0px"
	 width="200px" height="200px" viewBox="0 0 200 200" enable-background="new 0 0 200 200" xml:space="preserve">
<g>
	<g id="XMLID_912_">
		<path id="XMLID_915_" fill="#36AE9B" d="M26.244,83.722c0,0,1.038,1.143,2.916,2.978c1.86,1.808,4.516,4.389,7.725,7.507
			c1.584,1.515,3.304,3.16,5.135,4.91c1.85,1.684,3.736,3.568,5.778,5.385c4.019,3.753,8.404,7.647,13.177,11.504
			c4.739,3.899,9.435,7.411,13.92,10.593c2.191,1.635,4.415,3.103,6.437,4.577c2.083,1.441,4.041,2.795,5.843,4.042
			c3.7,2.515,6.763,4.598,8.908,6.056c2.176,1.47,3.504,2.257,3.504,2.257s-0.117-1.494-0.554-4.149
			c-0.119-0.666-0.251-1.404-0.394-2.207c-0.166-0.798-0.385-1.644-0.62-2.563c-0.486-1.824-1.036-3.938-1.886-6.142
			c-0.409-1.113-0.856-2.276-1.345-3.482c-0.492-1.202-1.089-2.396-1.697-3.653c-1.194-2.532-2.722-5.068-4.412-7.705
			c-3.474-5.179-7.971-10.444-13.529-15.008c-5.589-4.525-11.651-7.872-17.423-10.233c-2.924-1.125-5.715-2.112-8.436-2.772
			c-1.353-0.342-2.643-0.687-3.919-0.927c-1.279-0.236-2.508-0.44-3.681-0.617c-2.329-0.389-4.511-0.503-6.396-0.612
			c-0.947-0.045-1.82-0.089-2.635-0.091c-0.816,0.021-1.565,0.041-2.241,0.058C27.731,83.536,26.244,83.722,26.244,83.722z"/>
	</g>
	<g id="XMLID_908_">
		<path id="XMLID_911_" fill="#36AE9B" d="M61.45,56.455c0,0,2.353,16.1,12.543,30.966c10.189,14.866,24.356,22.869,24.356,22.869
			s-2.354-16.1-12.543-30.966C75.617,64.458,61.45,56.455,61.45,56.455z"/>
	</g>
	<g id="XMLID_873_">
		<path id="XMLID_876_" fill="#36AE9B" d="M36.216,121.192c0,0,8.398,10.506,21.869,17.287c13.47,6.781,26.912,7.269,26.912,7.269
			s-8.398-10.506-21.869-17.287C49.657,121.68,36.216,121.192,36.216,121.192z"/>
	</g>
	<g id="XMLID_807_">
		<path id="XMLID_810_" fill="#36AE9B" d="M173.756,83.722c0,0-1.038,1.143-2.916,2.978c-1.86,1.808-4.516,4.389-7.725,7.507
			c-1.584,1.515-3.304,3.16-5.135,4.91c-1.85,1.684-3.736,3.568-5.778,5.385c-4.019,3.753-8.404,7.647-13.177,11.504
			c-4.739,3.899-9.435,7.411-13.92,10.593c-2.191,1.635-4.415,3.103-6.437,4.577c-2.083,1.441-4.041,2.795-5.843,4.042
			c-3.7,2.515-6.763,4.598-8.908,6.056c-2.176,1.47-3.504,2.257-3.504,2.257s0.117-1.494,0.554-4.149
			c0.119-0.666,0.251-1.404,0.394-2.207c0.166-0.798,0.385-1.644,0.62-2.563c0.486-1.824,1.036-3.938,1.886-6.142
			c0.409-1.113,0.856-2.276,1.345-3.482c0.492-1.202,1.089-2.396,1.697-3.653c1.194-2.532,2.722-5.068,4.412-7.705
			c3.474-5.179,7.971-10.444,13.529-15.008c5.589-4.525,11.651-7.872,17.423-10.233c2.924-1.125,5.715-2.112,8.436-2.772
			c1.353-0.342,2.643-0.687,3.919-0.927c1.279-0.236,2.508-0.44,3.681-0.617c2.329-0.389,4.511-0.503,6.396-0.612
			c0.947-0.045,1.82-0.089,2.635-0.091c0.816,0.021,1.565,0.041,2.241,0.058C172.269,83.536,173.756,83.722,173.756,83.722z"/>
	</g>
	<g id="XMLID_803_">
		<path id="XMLID_806_" fill="#36AE9B" d="M140.807,54.251c0,0-2.45,16.758-13.056,32.233
			c-10.606,15.474-25.352,23.805-25.352,23.805s2.45-16.758,13.056-32.233C126.061,62.582,140.807,54.251,140.807,54.251z"/>
	</g>
	<g id="XMLID_767_">
		<path id="XMLID_770_" fill="#36AE9B" d="M163.074,121.192c0,0-8.398,10.506-21.869,17.287c-13.47,6.781-26.912,7.269-26.912,7.269
			s8.398-10.506,21.869-17.287C149.633,121.68,163.074,121.192,163.074,121.192z"/>
	</g>
</g>
</svg>
