<?xml version="1.0" encoding="utf-8"?>
<!-- Generator: Adobe Illustrator 17.0.0, SVG Export Plug-In . SVG Version: 6.00 Build 0)  -->
<!DOCTYPE svg PUBLIC "-//W3C//DTD SVG 1.1//EN" "http://www.w3.org/Graphics/SVG/1.1/DTD/svg11.dtd">
<svg version="1.1" id="Layer_1" xmlns="http://www.w3.org/2000/svg" xmlns:xlink="http://www.w3.org/1999/xlink" x="0px" y="0px"
	 width="200px" height="200px" viewBox="0 0 200 200" enable-background="new 0 0 200 200" xml:space="preserve">
<path fill="#36AE9B" d="M12.173,20.664c-2.186-6.359,3.974-12.519,10.333-10.333l136.317,45.903
	c6.557,2.186,7.551,10.929,1.789,14.705l-44.512,29.211l-62.793-50.87c-1.789-1.391-3.577,0.398-1.987,1.987l51.069,62.793
	l-29.41,44.71c-3.775,5.763-12.519,4.57-14.705-1.789L12.173,20.664z M122.657,120.616c-4.173,4.173-4.173,11.128,0,15.301
	s11.128,4.173,15.301,0s4.173-11.128,0-15.301C133.785,116.245,126.83,116.245,122.657,120.616z M147.297,145.257
	c-4.173,4.173-4.173,11.128,0,15.301c4.173,4.173,11.128,4.173,15.301,0c4.173-4.173,4.173-11.128,0-15.301
	S151.47,141.084,147.297,145.257z M187.437,185.397c4.173-4.173,4.173-11.128,0-15.301c-4.173-4.173-11.128-4.173-15.301,0
	s-4.173,11.128,0,15.301C176.309,189.569,183.264,189.569,187.437,185.397z"/>
</svg>
