<svg id="Layer_1" data-name="Layer 1" xmlns="http://www.w3.org/2000/svg" viewBox="0 0 904 324"><defs><style>.cls-1{fill:#fff;}.cls-2{fill:none;stroke:#fff;stroke-miterlimit:10;stroke-width:2px;}</style></defs><title>Logo-white</title><path class="cls-1" d="M369.77,176.59v28.58H356.3V136.09h7.51l19.43-.1c14.24,0,22.81,9,22.81,19,0,11.55-9.05,21.94-24.83,21.94A107.17,107.17,0,0,1,369.77,176.59Zm0-35.6v31.18c10.78,0,21.94-.39,21.94-15.69,0-6.25-2-11.45-5.77-13.66-3.56-1.92-8.08-1.83-14.05-1.83Z"/><path class="cls-1" d="M435,197.86c-3.08,5.1-9.62,8.66-16,8.66-9,0-11.74-6.64-11.74-11,0-7.7,6.06-12.89,12-14.72,6.35-1.93,11-1.73,15.59-2.12L435,173c-.09-7-3.37-10.78-8.37-10.78-4.23,0-6.64,3.08-7.41,7l-10,2.31c1.06-7.6,9.14-14,19.06-14h1.54c8.37,0,16.16,3.85,16.16,16.74v29.73l-8.56,2.6Zm-.29-5.77.1-10.11a72,72,0,0,0-9.53,3.18c-5.19,2.31-6.54,5.87-6.54,9.52a4.68,4.68,0,0,0,4.91,4.62C427.06,199.3,432.55,197.09,434.66,192.09Z"/><path class="cls-1" d="M475.86,206.13c-13.85,0-23-9.71-23-22.51,0-15.4,10.48-25.5,25.11-25.5,8.56,0,15.59,5.1,16.17,12.32l-8.47,1.63c0-3.85,0-9.43-8.76-9.43-7.21,0-13.18,6.35-13.18,15.59,0,11.74,6.64,19.15,16,19.15a22,22,0,0,0,12.9-4.23l.67,5.1C491,202.09,484.91,206.13,475.86,206.13Z"/><path class="cls-1" d="M520.77,206.13c-14.91,0-22.61-11.25-22.61-23.09,0-13.47,9.14-24.92,23.19-24.92,8,0,19.43,4.14,20.11,17.32v4.81H509c.48,9.62,6.45,16.17,16,16.17h.1c5.58,0,10.49-3,13.66-5.2l.68,5.1c-2.31,3.85-9.24,9.81-18.29,9.81Zm-.87-43.49c-5.19,0-10.87,4.62-10.87,12.8h20.11C529.14,167.84,526,162.64,519.9,162.64Z"/><path class="cls-1" d="M561.46,172.94v32.23H549.91V162.74l8.66-5.77,2.22,9.23c2.88-5.1,7.12-8.08,14.14-8.08,6.35,0,11.36,3.18,13.47,9.24,2.89-5.78,7.22-9.24,14.82-9.24,8.56,0,14.63,5.77,14.63,16.74l-.1,30.31H606.2l.1-26.84c-.1-8.09-1.83-13.09-8.18-13.09-8.28,0-8.56,9.24-8.56,9.24v.38l-.1,30.31H577.91l.1-26.84c-.1-8.09-1.83-13.09-8.18-13.09C563.67,165.24,561.94,170.34,561.46,172.94Z"/><path class="cls-1" d="M654.21,197.86c-3.08,5.1-9.62,8.66-16,8.66-9,0-11.74-6.64-11.74-11,0-7.7,6.06-12.89,12-14.72,6.35-1.93,11-1.73,15.59-2.12l.09-5.67c-.09-7-3.36-10.78-8.37-10.78-4.23,0-6.64,3.08-7.41,7l-10,2.31c1.06-7.6,9.14-14,19.05-14H649c8.37,0,16.16,3.85,16.16,16.74v29.73l-8.56,2.6Zm-.28-5.77L654,182a71.92,71.92,0,0,0-9.52,3.18c-5.2,2.31-6.55,5.87-6.55,9.52a4.68,4.68,0,0,0,4.91,4.62C646.32,199.3,651.81,197.09,653.93,192.09Z"/><path class="cls-1" d="M707.31,205.08l-18.09-22.23H687.1v22.32H675.65V140.7L687.2,133l-.1,44.55h2.69l20.12-18.67H717l-18.77,16.84,24,29.35C717.22,205.17,712.31,205.27,707.31,205.08Z"/><path class="cls-1" d="M742.85,206.13c-14.91,0-22.61-11.25-22.61-23.09,0-13.47,9.14-24.92,23.19-24.92,8,0,19.43,4.14,20.11,17.32v4.81H731.11c.48,9.62,6.45,16.17,16,16.17h.1c5.58,0,10.49-3,13.66-5.2l.68,5.1c-2.31,3.85-9.24,9.81-18.29,9.81ZM742,162.64c-5.19,0-10.87,4.62-10.87,12.8h20.11C751.22,167.84,748.05,162.64,742,162.64Z"/><path class="cls-1" d="M783.54,180.35v24.82H772V162.74l8.66-5.77,2.6,12.22c2.21-6.36,6.74-11.07,12.32-11.07a7.19,7.19,0,0,1,7.21,7.51v.77l-10.29,6.15c-.39-2.59-1.16-6.15-3.66-6C785.27,170.24,783.92,174.48,783.54,180.35Z"/><path class="cls-1" d="M840.14,168.13l-10.2,1.44a8,8,0,0,0-7.61-6.74c-4.61,0-8,2-8,5.78,0,3.94,3.75,6.73,9.52,8.18l6.07,1.44c6.25,1.54,11.45,6.26,11.45,13.09,0,7.41-6.16,14.43-17.13,14.43-10,0-17.22-3-19.44-10l10.39-2.59c1.16,3.94,5.78,6.92,9.15,6.92,4.13,0,8.56-1.25,8.56-5.19,0-2.31-1.44-4.81-5.29-5.68l-7.12-1.83c-9-1.92-14.63-7.7-14.63-15.2,0-9.43,7.41-14.53,15.78-14.53C831.48,157.64,837.73,159.76,840.14,168.13Z"/><circle class="cls-1" cx="66.04" cy="189.84" r="6.22"/><circle class="cls-1" cx="112.93" cy="177.14" r="6.22"/><circle class="cls-1" cx="142.24" cy="268.97" r="6.22"/><circle class="cls-1" cx="209.65" cy="219.15" r="6.22"/><circle class="cls-1" cx="249.7" cy="239.66" r="6.22"/><circle class="cls-1" cx="279.98" cy="133.18" r="6.22"/><circle class="cls-1" cx="176.43" cy="101.92" r="6.22"/><circle class="cls-1" cx="199.88" cy="55.03" r="6.22"/><circle class="cls-1" cx="93.4" cy="83.36" r="6.22"/><line class="cls-2" x1="176.43" y1="101.92" x2="112.93" y2="177.14"/><line class="cls-2" x1="176.43" y1="101.92" x2="210.62" y2="220.13"/><line class="cls-2" x1="112.93" y1="177.14" x2="211.6" y2="219.15"/><line class="cls-2" x1="211.6" y1="219.15" x2="142.24" y2="268.97"/><line class="cls-2" x1="142.24" y1="268.97" x2="112.93" y2="177.14"/><line class="cls-2" x1="112.93" y1="177.14" x2="93.4" y2="83.36"/><line class="cls-2" x1="93.4" y1="83.36" x2="178.39" y2="101.92"/><line class="cls-2" x1="178.39" y1="101.92" x2="279.98" y2="133.18"/><line class="cls-2" x1="279.98" y1="133.18" x2="211.6" y2="219.15"/><line class="cls-2" x1="211.6" y1="219.15" x2="250.68" y2="240.64"/><line class="cls-2" x1="177.41" y1="102.9" x2="200.85" y2="54.05"/><line class="cls-2" x1="65.07" y1="189.84" x2="113.91" y2="178.12"/><line class="cls-2" x1="66.04" y1="188.86" x2="143.22" y2="269.95"/><line class="cls-2" x1="142.24" y1="270.92" x2="249.7" y2="239.66"/><line class="cls-2" x1="249.7" y1="239.66" x2="281.94" y2="131.23"/><line class="cls-2" x1="281.94" y1="131.23" x2="199.88" y2="55.03"/><line class="cls-2" x1="199.88" y1="55.03" x2="92.42" y2="82.38"/><line class="cls-2" x1="92.42" y1="82.38" x2="65.07" y2="189.84"/></svg>