<?xml version="1.0" encoding="utf-8"?>
<!-- Generator: Adobe Illustrator 17.0.0, SVG Export Plug-In . SVG Version: 6.00 Build 0)  -->
<!DOCTYPE svg PUBLIC "-//W3C//DTD SVG 1.1//EN" "http://www.w3.org/Graphics/SVG/1.1/DTD/svg11.dtd">
<svg version="1.1" id="Layer_1" xmlns="http://www.w3.org/2000/svg" xmlns:xlink="http://www.w3.org/1999/xlink" x="0px" y="0px"
	 width="200px" height="200px" viewBox="0 0 200 200" enable-background="new 0 0 200 200" xml:space="preserve">
<g>
	<g>
		<g>
			<path fill="#34D5AC" d="M102.278,98.584c7.782-15.017,21.879-26.159,37.52-32.59s32.788-8.466,49.702-8.441
				c-2.044,20.453-4.349,41.703-15.133,59.204c-9.374,15.212-41.003,40.221-60.53,37.894c-0.6-0.072-1.181-0.173-1.743-0.292
				c8.529-17.909,20.848-33.953,36.004-46.784c2.129-1.803,2.393-4.987,0.59-7.116c-1.799-2.126-4.987-2.393-7.116-0.59
				c-16.085,13.616-29.183,30.612-38.318,49.582C92.291,137.807,96.22,110.269,102.278,98.584z"/>
		</g>
	</g>
	<g>
		<g>
			<path fill="#34D5AC" d="M69.122,78.206c11.594,14.207,25.738,52.418,17.608,69.448c-0.945,1.978-2.142,3.583-3.53,4.871
				c-17.199-17.193-30.003-39.04-36.434-62.442c-0.738-2.688-3.517-4.268-6.205-3.53s-4.268,3.517-3.53,6.205
				c6.523,23.741,19.175,45.977,36.139,63.915c-14.568,1.338-34.993-10.42-43.167-19.134
				c-11.892-12.674-18.192-29.704-19.548-46.411c-1.357-16.707,1.909-33.165,7.066-48.65C36.312,51.906,55.782,61.864,69.122,78.206
				z"/>
		</g>
	</g>
</g>
</svg>
