<?xml version="1.0" encoding="utf-8"?>
<!-- Generator: Adobe Illustrator 17.0.0, SVG Export Plug-In . SVG Version: 6.00 Build 0)  -->
<!DOCTYPE svg PUBLIC "-//W3C//DTD SVG 1.1//EN" "http://www.w3.org/Graphics/SVG/1.1/DTD/svg11.dtd">
<svg version="1.1" id="Layer_1" xmlns="http://www.w3.org/2000/svg" xmlns:xlink="http://www.w3.org/1999/xlink" x="0px" y="0px"
	 width="250px" height="90px" viewBox="0 0 250 90" enable-background="new 0 0 250 90" xml:space="preserve">
<g>
	<path id="XMLID_69_" fill="#36AE9B" d="M0.253,57.419c0,0,15.592-0.714,38.983-1.214c11.694-0.278,25.343-0.492,39.956-0.649
		c7.319-0.056,14.863-0.171,22.543-0.18c7.675-0.03,15.468-0.048,23.267-0.077c7.793,0.03,15.588,0.048,23.27,0.077
		c7.672,0,15.226,0.124,22.527,0.171c14.626,0.153,28.27,0.375,39.963,0.658c23.391,0.496,38.983,1.214,38.983,1.214
		s-15.592,0.705-38.983,1.21c-11.694,0.277-25.337,0.504-39.963,0.649c-7.301,0.06-14.856,0.184-22.527,0.184
		c-7.682,0.022-15.478,0.043-23.27,0.073c-7.799-0.03-15.592-0.052-23.267-0.073c-7.68-0.013-15.225-0.124-22.543-0.189
		c-14.612-0.15-28.262-0.371-39.956-0.645C15.845,58.115,0.253,57.419,0.253,57.419z"/>
	<g id="XMLID_53_">
		<g id="XMLID_61_">
			<polygon id="XMLID_68_" fill="#36AE9B" points="128.266,3.402 126.439,50.372 130.094,50.372 			"/>
			<polygon id="XMLID_67_" fill="#36AE9B" points="151.201,13.625 140.668,50.372 144.347,50.372 			"/>
			<polygon id="XMLID_66_" fill="#36AE9B" points="169.54,18.329 153.948,50.372 157.688,50.372 			"/>
			<polygon id="XMLID_65_" fill="#36AE9B" points="187.74,24.518 167.371,50.372 171.409,50.372 			"/>
			<polygon id="XMLID_64_" fill="#36AE9B" points="207.709,28.224 182.804,50.372 186.907,50.372 			"/>
			<polygon id="XMLID_63_" fill="#36AE9B" points="222.504,36.261 201.8,50.372 205.748,50.372 			"/>
			<polygon id="XMLID_62_" fill="#36AE9B" points="237.118,43.773 224.048,50.372 227.592,50.372 			"/>
		</g>
		<g id="XMLID_54_">
			<polygon id="XMLID_60_" fill="#36AE9B" points="105.22,13.625 115.527,50.372 111.928,50.372 			"/>
			<polygon id="XMLID_59_" fill="#36AE9B" points="87.308,18.329 102.546,50.372 98.885,50.372 			"/>
			<polygon id="XMLID_58_" fill="#36AE9B" points="69.499,24.518 89.417,50.372 85.467,50.372 			"/>
			<polygon id="XMLID_57_" fill="#36AE9B" points="49.981,28.224 74.343,50.372 70.32,50.372 			"/>
			<polygon id="XMLID_56_" fill="#36AE9B" points="35.513,36.261 55.752,50.372 51.901,50.372 			"/>
			<polygon id="XMLID_55_" fill="#36AE9B" points="21.224,43.773 34.001,50.372 30.541,50.372 			"/>
		</g>
	</g>
</g>
</svg>
