<?xml version="1.0" encoding="utf-8"?>
<!-- Generator: Adobe Illustrator 17.0.0, SVG Export Plug-In . SVG Version: 6.00 Build 0)  -->
<!DOCTYPE svg PUBLIC "-//W3C//DTD SVG 1.1//EN" "http://www.w3.org/Graphics/SVG/1.1/DTD/svg11.dtd">
<svg version="1.1" id="Layer_1" xmlns="http://www.w3.org/2000/svg" xmlns:xlink="http://www.w3.org/1999/xlink" x="0px" y="0px"
	 width="200px" height="200px" viewBox="0 0 200 200" enable-background="new 0 0 200 200" xml:space="preserve">
<g>
	<polygon fill="#34D5AC" points="99.598,69.775 108.048,86.885 126.954,89.633 113.264,102.95 116.498,121.766 99.598,112.88 
		82.698,121.766 85.931,102.95 72.265,89.633 91.148,86.885 	"/>
	<polygon fill="#34D5AC" points="25.367,104.291 29.493,112.641 38.708,113.982 32.041,120.475 33.608,129.661 25.367,125.326 
		17.124,129.661 18.7,120.475 12.027,113.982 21.249,112.641 	"/>
	<polygon fill="#34D5AC" points="173.13,104.627 177.258,112.987 186.46,114.328 179.796,120.815 181.383,129.997 173.13,125.675 
		164.879,129.997 166.466,120.815 159.799,114.328 169.004,112.987 	"/>
</g>
</svg>
