<?xml version="1.0" encoding="utf-8"?>
<!-- Generator: Adobe Illustrator 17.0.0, SVG Export Plug-In . SVG Version: 6.00 Build 0)  -->
<!DOCTYPE svg PUBLIC "-//W3C//DTD SVG 1.1//EN" "http://www.w3.org/Graphics/SVG/1.1/DTD/svg11.dtd">
<svg version="1.1" id="Layer_1" xmlns="http://www.w3.org/2000/svg" xmlns:xlink="http://www.w3.org/1999/xlink" x="0px" y="0px"
	 width="200px" height="200px" viewBox="0 0 200 200" enable-background="new 0 0 200 200" xml:space="preserve">
<g>
	<g>
		
			<rect x="159.496" y="101.81" transform="matrix(0.8764 -0.4816 0.4816 0.8764 -30.1341 96.3853)" fill="#34D5AC" width="26.41" height="10.174"/>
		<path fill="#34D5AC" d="M110.868,44.694c0.424-1.461,13.035-6.107,28.479-1.617c13.659,3.971,21.289,12.048,22.416,14.1
			c0.876,1.59,5.605,10.201,8.026,14.608c0.363,0.664,0.452,1.445,0.24,2.17s-0.703,1.339-1.367,1.701l-9.075,4.986l-13.659,7.507
			l-9.398-17.106c11.986-6.587,2.482-17.157-7.095-22.026C120.333,44.387,110.868,44.705,110.868,44.694z"/>
		<g>
			<path fill="#34D5AC" d="M149.163,88.756l10.391-5.711l10.391-5.711c-0.993,5.951,2.995,19.058,10.854,16.95l-11.573,6.358
				L157.652,107C163.648,101.501,154.724,91.11,149.163,88.756z"/>
		</g>
		<g>
			<path fill="#34D5AC" d="M129.826,78.187c3.201-1.762,4.852-3.821,4.875-6.135l0.954,1.735l3.748,6.816l3.748,6.821l0.954,1.735
				c-1.969-1.221-4.59-0.931-7.792,0.825l-5.204,2.861l-3.241-5.895l-3.241-5.895L129.826,78.187z"/>
		</g>
		
			<rect x="12.748" y="101.857" transform="matrix(-0.8764 -0.4816 0.4816 -0.8764 -2.8075 213.1727)" fill="#34D5AC" width="26.41" height="10.179"/>
		<path fill="#34D5AC" d="M29.938,75.66l9.075,4.986l13.659,7.507l9.398-17.106c-11.986-6.587-2.482-17.157,7.095-22.026
			c9.103-4.629,18.568-4.311,18.568-4.323c-0.424-1.461-13.035-6.107-28.479-1.617c-13.659,3.971-21.289,12.048-22.416,14.1
			c-0.876,1.59-5.605,10.201-8.026,14.608c-0.363,0.664-0.452,1.445-0.24,2.17C28.783,74.679,29.274,75.292,29.938,75.66z"/>
		<g>
			<path fill="#34D5AC" d="M40.948,107.006c-5.996-5.505,2.934-15.896,8.489-18.25l-10.391-5.711l-10.391-5.711
				c0.993,5.951-2.995,19.058-10.854,16.95l11.573,6.358L40.948,107.006z"/>
		</g>
		<g>
			<path fill="#34D5AC" d="M63.899,72.052l-0.954,1.735l-3.748,6.816l-3.748,6.816l-0.954,1.735c1.969-1.221,4.59-0.931,7.792,0.825
				l5.204,2.861l3.241-5.895l3.241-5.895l-5.204-2.856C65.573,76.43,63.927,74.366,63.899,72.052z"/>
		</g>
		<g>
			<path fill="#34D5AC" d="M113.366,113.024l-7.719,4.239c7.491,4.116,10.525,5.784,23.442,12.884
				c17.67,9.71,39.824,24.184,43.566,27.637c1.199,1.104,3.112,0.781,3.899-0.647l5.081-9.248l5.081-9.248
				c0.786-1.428,0.028-3.218-1.545-3.637c-4.914-1.311-29.014-12.254-46.684-21.964c-7.005-3.849-11.083-6.091-14.552-7.998
				c-0.524,0.446-1.049,0.892-1.556,1.333C119.747,108.657,117.014,111.016,113.366,113.024z"/>
		</g>
		<g>
			<path fill="#34D5AC" d="M75.813,82.052l-3.241,5.901l-3.241,5.895c2.326,1.277,4.261,2.582,5.979,3.871l17.117-9.409
				C87.526,86.603,82.422,85.689,75.813,82.052z"/>
		</g>
		<g>
			<path fill="#34D5AC" d="M13.434,135.005c4.914-1.311,29.014-12.254,46.678-21.964c19.678-10.815,16.348-8.985,40.911-22.483
				c6.654-3.659,12.828-3.598,21.769-8.511l3.241,5.901l3.241,5.896c-8.941,4.914-12.198,10.162-18.852,13.816
				c-24.558,13.498-21.234,11.668-40.911,22.483c-17.67,9.71-39.824,24.184-43.566,27.637c-1.199,1.104-3.112,0.781-3.899-0.647
				l-5.081-9.248l-5.081-9.248C11.102,137.22,11.855,135.424,13.434,135.005z"/>
		</g>
	</g>
</g>
</svg>
